<?xml version="1.0" encoding="UTF-8"?>
<svg id="Layer_2" data-name="Layer 2" xmlns="http://www.w3.org/2000/svg" viewBox="0 0 249.46 354.95">
  <defs>
    <style>
      .cls-1 {
        fill: none;
        stroke: #231f20;
        stroke-linecap: round;
        stroke-miterlimit: 10;
        stroke-width: 6.03px;
      }

      .cls-2 {
        letter-spacing: -.01em;
      }

      .cls-3 {
        font-family: Oswald-Bold, Oswald;
        font-size: 9.31px;
        font-weight: 700;
      }

      .cls-3, .cls-4 {
        fill: #fff;
      }

      .cls-5 {
        fill: #f15a29;
      }

      .cls-5, .cls-4, .cls-6, .cls-7 {
        stroke-width: 0px;
      }

      .cls-8 {
        letter-spacing: 0em;
      }

      .cls-6 {
        fill: #f7941d;
      }

      .cls-7 {
        fill: #231f20;
      }
    </style>
  </defs>
  <g id="Layer_1-2" data-name="Layer 1">
    <g>
      <path class="cls-7" d="m137.57,53.94h0c41.6,0,75.38,33.78,75.38,75.38v224.63H62.19v-224.63c0-41.6,33.78-75.38,75.38-75.38Z"/>
      <path class="cls-4" d="m212.95,143.25v210.7h-101.01v-110.45c0-27.68,11.3-52.75,29.59-70.89,1.76-1.75,3.57-3.42,5.45-5.04-20.79-1.95-36.8-20.21-34.89-41.75,1.6-18.02,15.97-32.62,33.95-34.69,23.46-2.7,43.36,15.44,43.36,38.18,0,6.42-1.59,12.5-4.42,17.82,8.87-2.53,18.26-3.89,27.96-3.89Z"/>
      <path class="cls-7" d="m14.32,354.95l93.67-.79c2.33-.02,4.05-2.18,3.55-4.45l-8.28-37.73c-.5-2.27-2.97-3.51-5.09-2.56l-85.39,38.52c-3.61,1.63-2.43,7.04,1.54,7.01Z"/>
      <path class="cls-7" d="m171.58,131.72c0,5.19-4.21,9.41-9.41,9.41s-9.41-4.21-9.41-9.41c0-.75.09-1.49.26-2.18.7,2.26,2.81,3.89,5.3,3.89,3.07,0,5.56-2.49,5.56-5.56,0-2.49-1.63-4.6-3.89-5.3.69-.17,1.43-.26,2.18-.26,5.19,0,9.41,4.21,9.41,9.41Z"/>
      <path class="cls-6" d="m199.38,323.8h21.38c11.5,0,20.83,9.33,20.83,20.83v9.32h-42.21v-30.15h0Z"/>
      <path class="cls-5" d="m191.84,323.8h21.38c11.5,0,20.83,9.33,20.83,20.83v9.32h-42.21v-30.15h0Z"/>
      <line class="cls-1" x1="56.15" y1="57.04" x2="86.18" y2="86.08"/>
      <line class="cls-1" x1="41.1" y1="71.01" x2="80.37" y2="93.68"/>
      <path class="cls-6" d="m248.5,164.57l-34.23-33.09c-1.51-1.46-4.01-1.04-4.96.84l-12.72,25.18c-.95,1.88.19,4.14,2.27,4.49l46.95,7.91c3.03.51,4.9-3.2,2.69-5.33Z"/>
      <path class="cls-7" d="m149.79,277.59l-32.96-62.6c-1.13-2.14-4-2.57-5.71-.87l-29.64,29.64c-1.71,1.71-1.27,4.59.87,5.71l62.6,32.96c3.12,1.64,6.49-1.73,4.85-4.85Z"/>
      <path class="cls-6" d="m155.87,3.49l-2.86-3.49L0,125.26l2.86,3.49,19.51-15.97c11.76.27,20.78.48,26.96.62,6.86.17,10.28.24,10.3.24,1.04-4.88,2.32-8.88,3.39-11.83,1.45-3.93,3.38-9.15,7.34-15.11,2.44-3.66,4.67-6.15,6.45-8.11,4.63-5.1,8.8-8.38,11.64-10.6,2.59-2.02,4.73-3.69,7.98-5.59,1.07-.63,4.72-2.71,9.92-4.63,7.1-2.61,12.84-3.33,14.4-3.51,2.46-.27,5.61-.48,9.29-.32,2.18-11.55,4.37-23.11,6.56-34.67l19.27-15.78Z"/>
      <g>
        <path class="cls-6" d="m176.91,183.13l-13.28,9.65c-1.24.9-1.76,2.5-1.28,3.95l5.07,15.61c.47,1.46,1.83,2.44,3.36,2.44h16.42c1.53,0,2.89-.99,3.36-2.44l5.07-15.61c.47-1.46-.05-3.05-1.28-3.95l-13.28-9.65c-1.24-.9-2.92-.9-4.15,0Z"/>
        <path class="cls-7" d="m179.75,186.58l2.56,7.89c.11.33.42.56.77.56h8.29c.78,0,1.11,1,.48,1.46l-6.71,4.87c-.28.21-.4.57-.29.9l2.56,7.89c.24.75-.61,1.37-1.25.9l-6.71-4.87c-.28-.21-.67-.21-.95,0l-6.71,4.87c-.63.46-1.49-.16-1.25-.9l2.56-7.89c.11-.33-.01-.7-.29-.9l-6.71-4.87c-.63-.46-.31-1.46.48-1.46h8.29c.35,0,.66-.23.77-.56l2.56-7.89c.24-.75,1.3-.75,1.54,0Z"/>
        <text class="cls-3" transform="translate(173.41 204.45)"><tspan class="cls-8" x="0" y="0">S</tspan><tspan class="cls-2" x="4.71" y="0">M</tspan></text>
      </g>
    </g>
  </g>
</svg>